<svg width="256" height="256" viewBox="0 0 256 256" fill="none" xmlns="http://www.w3.org/2000/svg">
<rect width="256" height="256" fill="black"/>
<g clip-path="url(#clip0_1412_262)">
<path fill-rule="evenodd" clip-rule="evenodd" d="M74.5437 138.066V152.499C74.5437 152.974 74.2265 153.292 73.7507 153.292H54.7183C52.4978 153.45 54.7183 92.2293 53.9253 91.4362C53.9253 91.0397 54.2425 90.6432 54.7183 90.6432H73.7507C75.8126 90.7225 73.7507 121.333 74.7023 122.126C75.0196 122.205 85.5667 106.979 85.8046 106.821C85.9632 106.583 86.2011 106.504 86.439 106.504H106.027C106.661 106.504 107.057 107.297 106.661 107.772L90.4041 128.074C90.1662 128.312 90.1662 128.708 90.4041 129.025L106.74 152.419C109.357 155.036 86.2804 153.133 86.2804 153.688C86.0425 153.688 85.8046 153.53 85.646 153.371C85.4081 153.292 75.0196 137.828 74.7023 137.907C74.623 137.907 74.5437 137.986 74.5437 138.066ZM153.608 129.501C154.321 163.204 99.1273 163.284 99.841 129.501C99.2066 96.1151 154.321 96.1944 153.608 129.501ZM126.645 121.73C116.574 121.412 116.812 137.828 126.724 137.511C136.875 137.749 136.796 121.412 126.645 121.73ZM176.922 152.181C178.112 169.628 163.996 178.034 147.739 173.831C146.312 174.465 148.374 158.05 148.136 157.733C148.453 156.226 150.594 157.495 151.546 157.257C155.114 157.177 156.304 155.274 156.304 151.547V106.9C155.59 105.076 175.812 106.583 176.209 106.107C178.271 106.504 176.209 150.992 176.922 152.181ZM156.066 92.4672C155.987 78.8273 177.557 78.748 177.478 92.4672C177.715 106.107 155.828 106.107 156.066 92.4672ZM182.394 106.186C182.87 106.662 202.933 105.155 202.22 106.979V152.34C202.22 152.816 201.902 153.133 201.427 153.133C200.951 152.657 180.888 154.164 181.601 152.34V106.979C181.601 106.583 181.918 106.186 182.394 106.186ZM180.888 92.4672C181.046 78.6687 202.14 78.6687 202.299 92.4672C202.537 106.107 180.65 106.107 180.888 92.4672Z" fill="white"/>
</g>
<defs>
<clipPath id="clip0_1412_262">
<rect width="149.087" height="93.5761" fill="white" transform="translate(53.9253 81.92)"/>
</clipPath>
</defs>
</svg>
